PathFileType	4	(X/Y/Z)	57_2_68_p1_0-516.trc
DataRate	CameraRate	NumFrames	NumMarkers	Units	OrigDataRate	OrigDataStartFrame	OrigNumFrames
59.0	59.0	5	27	m	59.0	193	517
Frame#	Time	RHip			RKnee			RAnkle			RBigToe			RSmallToe			RHeel			LHip			LKnee			LAnkle			LBigToe			LSmallToe			LHeel			Neck			Head			Nose			RShoulder			RElbow			RWrist			RThumb			RIndex			RPinky			LShoulder			LElbow			LWrist			LThumb			LIndex			LPinky			
		X1	Y1	Z1	X2	Y2	Z2	X3	Y3	Z3	X4	Y4	Z4	X5	Y5	Z5	X6	Y6	Z6	X7	Y7	Z7	X8	Y8	Z8	X9	Y9	Z9	X10	Y10	Z10	X11	Y11	Z11	X12	Y12	Z12	X13	Y13	Z13	X14	Y14	Z14	X15	Y15	Z15	X16	Y16	Z16	X17	Y17	Z17	X18	Y18	Z18	X19	Y19	Z19	X20	Y20	Z20	X21	Y21	Z21	X22	Y22	Z22	X23	Y23	Z23	X24	Y24	Z24	X25	Y25	Z25	X26	Y26	Z26	X27	Y27	Z27	
193	3.2711864406779663	0.24379104093780402	0.5983517640321939	1.007539346106257	0.23927910234967573	0.7017138091812444	1.3916759539221037	0.23233050088065146	0.9073713891873757	1.7772866686254023	0.22885613053720338	0.6511256350195901	1.8001068041570247	0.28701137343384975	0.7246564329236697	1.8056519260007318	0.23246081401469726	0.9889147336184237	1.8210221257764418	0.026587728693000644	0.5883457783855942	1.0153758260510333	0.06574411423188369	0.7372954522387866	1.3929949298627349	0.07429026621451776	0.890100337746272	1.7797833868007964	0.08408561106869873	0.674335831268171	1.8055420677126268	0.02839009187017902	0.7487654086886253	1.8252461300762322	0.0941368640917734	0.9353800873836284	1.817000257888824	0.11195902864811524	0.41968959914164383	0.46232910272439937	0.07742784381329723	0.25012182522806714	0.25491836289678554	0.09482333385960155	0.24653791330950642	0.38158109698517356	0.26819423839786827	0.40363148309647595	0.5282702164582137	0.3155214658424683	0.482871626826813	0.7936209692098969	0.26236828312975263	0.44722081048981116	1.0109361106809767	0.1918455433845376	0.37318637906185764	1.100598963171832	0.18501148366428258	0.4311566147395691	1.1096777039017247	0.21570573943620214	0.5284878626042003	1.1096038273518143	-0.03850862222282197	0.3893393442189953	0.5423383414118478	-0.05433105228840494	0.44122024491027956	0.8015237739788845	0.03810717946824245	0.3511190524215689	1.0110452972856188	0.11054719127187339	0.29104063714171563	1.078574029474177	0.09632695320148432	0.2912321630976887	1.095094054981964	0.06623173375335652	0.31057235653080456	1.097534296188429
194	3.288135593220339	0.243490726954662	0.5985394455575266	1.0035586188594543	0.23923953989320676	0.7015524042386816	1.3916853128644313	0.23234104015214602	0.9072711287238169	1.7772981911399253	0.22900420730817206	0.6512106169593309	1.8000418904428712	0.2921148204363772	0.725948270714611	1.805425096879168	0.2320041699210276	0.9897516443298624	1.8168955355975218	0.02618301773078731	0.5884482679366254	1.0116390352511453	0.06454876173630944	0.7341067360135896	1.387841737903812	0.07430923614770572	0.8900137862539831	1.779853762721967	0.08411284973821642	0.674145327883177	1.8054219380710155	0.02846441771237789	0.7483872230819498	1.8251357258536596	0.09420473828688665	0.9358724958705725	1.8171737431042667	0.11188025979980368	0.41977465512522877	0.46239364103348857	0.06929444950368872	0.26161432636502197	0.25271439171999105	0.09084032169047711	0.24504635170207756	0.3823064682044111	0.2682040030742995	0.40367730437421656	0.5280467821974741	0.31875533488712054	0.49151135616821756	0.7816896709139065	0.26230650719748894	0.4469930091979339	1.0107950508146974	0.19181980816532784	0.37302219571446044	1.100531798306143	0.18483999824410638	0.4314962814734887	1.109535036785283	0.2155857627562212	0.5287499394359335	1.1095207014500907	-0.03857028064951023	0.38939834654384403	0.5424088739823061	-0.05023934674765125	0.44318241407380365	0.8012914915303002	0.03811816524376513	0.35136722840980106	1.0113744555969006	0.11107749670673107	0.2900651750268247	1.0820676068300847	0.10412160918237831	0.2909817904003395	1.0978744274092478	0.06646099809887906	0.31082396512875493	1.0981029089688186
195	3.305084745762712	0.24381968420749955	0.5983684511162585	1.0073185159682072	0.23927266238416134	0.7014866834357271	1.3915701275424563	0.23117809469484554	0.9042753399125474	1.7725217421730581	0.22976289632623495	0.6494770900764447	1.7957481788635197	0.2920108747070911	0.726265922793489	1.8053868414180938	0.2362891963342968	1.0059614909753491	1.820783308272288	0.029771925566555123	0.6021771274657317	1.0155444622445484	0.060378577456957024	0.7329162673083819	1.387985605170803	0.07432126006768203	0.8900564590149678	1.7797251298105063	0.08486973697475438	0.6725035687798249	1.8010760138581514	0.028473153114156848	0.7482199221228303	1.8250054807304943	0.0942655533366764	0.9362389661186261	1.8171425326616066	0.11231990271104862	0.42195780715951425	0.4659623842070018	0.06119044304776642	0.27285990528685006	0.25061251188510053	0.09109517677896728	0.2467810111391918	0.3854383156677739	0.2681581096103714	0.40366440649846336	0.5279277328970667	0.3230089646027157	0.4795496740603127	0.7851543535153362	0.2646107232046457	0.4304182674446708	1.006402702685687	0.19101805593249704	0.3730928304647833	1.0964948064680098	0.18487961827787558	0.4046493688431766	1.1072771887441206	0.21486495191105004	0.5123516998674366	1.1078440354411672	-0.03808493800166208	0.3916216936105147	0.5456349462836992	-0.054942167667465534	0.45668231490351924	0.801203027007516	0.04119480625956593	0.36384248908259065	1.0152360849842794	0.11857144012979202	0.2899743725802205	1.0813698594344463	0.11218815731636583	0.2796387485641207	1.0965376259971873	0.06660614174567137	0.3108290870969554	1.0980797050277136
196	3.3220338983050848	0.2437631401260118	0.598268167710745	1.007253475872731	0.2393211858739619	0.7016281362853976	1.3915613326172063	0.23234639181372332	0.9073462264592002	1.7773468606648972	0.22892924027144976	0.6509484820483727	1.8000745374735083	0.29201389225502566	0.7254380320906542	1.805544877012022	0.23763397420544216	1.0096046441315378	1.825801458190825	0.029787920917960963	0.6024292097702998	1.0155612808045111	0.06128166693856721	0.7360655607612883	1.3928201355448537	0.07432624415833897	0.889981912881365	1.7798080144224468	0.08407457034052941	0.6740329705825231	1.8053142991954085	0.02748573096949918	0.7448119766149379	1.82015278803469	0.09420850893654939	0.9359131977149301	1.8171489134681984	0.10848146889679573	0.42126044611950264	0.4700925775746995	0.06097392242208649	0.27383300800756066	0.25361572876468547	0.08798852575780185	0.23674001428662975	0.38762074508280076	0.26748775331635716	0.4015750937115699	0.524528012662952	0.31896378723060986	0.46670503428498866	0.7857904045696593	0.26449642771418375	0.42968606339428705	1.0060582474397093	0.19432590913356165	0.36135717648154125	1.0952697384382268	0.19118531437956077	0.3756657953470184	1.1009878359698757	0.21346798364799896	0.48383535477242845	1.1021580407924905	-0.037901878998191856	0.39197083773567554	0.5492948095341242	-0.05485375007108195	0.4570876359474886	0.8014287347269361	0.036989855209082996	0.37626537508319485	1.016217376024082	0.12295012197035765	0.27795796755338725	1.080378430572328	0.11756159904884025	0.2704512518798014	1.0998848098827105	0.07003772497901972	0.3254414257421774	1.1022840515864498
197	3.3389830508474576	0.2474295647255229	0.5995748980044229	1.003172711279284	0.2394506295234551	0.700330261630392	1.382996301190498	0.2311605612427301	0.9038585123773598	1.772465044049003	0.22875080324568312	0.6502812016351742	1.799921314884058	0.2918363005025981	0.7249483777480002	1.8053959219822302	0.24028989595576433	0.9870595646178791	1.8156089118125776	0.02903037989387341	0.602871528704897	1.0081571525982151	0.06001193481706849	0.7330822364845248	1.3874756999717122	0.07428912347741487	0.8899417446165354	1.7796964655939098	0.08491000898727033	0.6725388398905187	1.8010975980684027	0.027528753655392837	0.7450317252564571	1.8202244392522189	0.0942003751531465	0.9364630864665424	1.8171852816476604	0.10388525599052224	0.4340857283962519	0.4647966758875268	0.060827556016667395	0.2738943833678061	0.2535964754406911	0.0879177745558975	0.23665261492094503	0.3876293481706383	0.26805508867660377	0.4038769926435847	0.5277509066099159	0.31539073787604244	0.48045784657678975	0.7857516423677435	0.2607607900742158	0.41815023537979273	1.0058934832288304	0.1942606321591634	0.3610752504422644	1.0953148284577126	0.19550533288514835	0.3650811200339211	1.1034882319871377	0.2099534753626748	0.44413559205383435	1.0999230204839492	-0.03788559892158009	0.3922164138961948	0.5493206526216549	-0.05021563797825357	0.46078926683321725	0.8053577742592737	0.04140336575815614	0.3645587132285658	1.0156919764766057	0.1245664738534579	0.2805213592259394	1.0875395244784611	0.12481082403793317	0.2825236598562908	1.1004143646143956	0.08143370081073895	0.3286090030023186	1.1055579242512732
